<?xml version="1.0" encoding="UTF-8"?><svg id="Layer_2" xmlns="http://www.w3.org/2000/svg" viewBox="0 0 1127.08 247.23"><defs><style>.cls-1{fill:#2703a5;stroke-width:0px;}</style></defs><g id="Layer_1-2"><path class="cls-1" d="M991.61,158.82c0,16.35-16.15,24.11-16.15,24.11-25.45,12.02-57.82,3.47-66.6.75-1.38-.43-2.29-1.7-2.29-3.14v-16.9c0-2.33,2.33-3.87,4.52-3.01,16.38,6.45,38.92,4.88,44.09,2.39,6.75-3.18,2.92-7.89,2.92-7.89-2.98-3.77-20.7-6.13-20.7-6.13-16.48-2.69-23.13-9.43-23.13-9.43-7.96-6.42-7.96-17.85-7.96-17.85-1.54-22.87,15.3-29.58,15.3-29.58,25.03-10.45,53.1-3.24,61.16-.75,1.38.43,2.29,1.7,2.29,3.14v18.05c-.16,1.74-1.64,3.08-3.44,3.08-.23,0-.46-.03-.69-.07-.23-.07-.46-.13-.66-.2-15.46-4.49-28.73-4.88-28.73-4.88-20.83-.43-16.74,8.58-12.58,10.35,3.6,1.51,25.62,5.96,25.62,5.96,15.56,3.14,27.03,12.87,27.03,32.01Z"/><path class="cls-1" d="M1085.82,158.82c0,16.35-16.15,24.11-16.15,24.11-25.45,12.02-57.82,3.47-66.6.75-1.38-.43-2.29-1.7-2.29-3.14v-16.9c0-2.33,2.33-3.87,4.52-3.01,16.38,6.45,38.92,4.88,44.09,2.39,6.75-3.18,2.92-7.89,2.92-7.89-2.98-3.77-20.7-6.13-20.7-6.13-16.48-2.69-23.13-9.43-23.13-9.43-7.96-6.42-7.96-17.85-7.96-17.85-1.54-22.87,15.3-29.58,15.3-29.58,25.03-10.45,53.1-3.24,61.16-.75,1.38.43,2.29,1.7,2.29,3.14v18.05c-.16,1.74-1.64,3.08-3.44,3.08-.23,0-.46-.03-.69-.07-.23-.07-.46-.13-.66-.2-15.46-4.49-28.73-4.88-28.73-4.88-20.83-.43-16.74,8.58-12.58,10.35,3.6,1.51,25.62,5.96,25.62,5.96,15.56,3.14,27.03,12.87,27.03,32.01Z"/><path class="cls-1" d="M872.35,89.51c-33.05-9.82-62.46,7.38-66.11,38.4-3.61,31.02,6.75,56.18,39.97,60.22,18.78,2.28,34.92-1.01,45.35-4.28,1.35-.42,2.26-1.7,2.26-3.11v-17.69c0-2.19-2.09-3.77-4.19-3.14-12.22,3.64-47.26,11.81-51.58-12.56h59.8s7.6-48.09-25.51-57.83M868.7,127.91h-30.64s1.1-15.23,16.52-15.23,14.13,15.23,14.13,15.23"/><path class="cls-1" d="M797.06,93.01v89.79c0,1.8-1.46,3.25-3.25,3.25h-21.74c-1.8,0-3.25-1.46-3.25-3.25v-4.27s-37.34,22.81-57.42.19c-6.99-7.88-7.52-30.26-7.52-30.26v-55.45c0-1.8,1.46-3.25,3.25-3.25h25.78c1.8,0,3.25,1.46,3.25,3.25v51.59s-1.09,15.59,12.11,15.59c0,0,8.92,1.12,16.69-6.97v-60.21c0-1.8,1.46-3.25,3.25-3.25h25.59c1.8,0,3.25,1.46,3.25,3.25Z"/><rect class="cls-1" x="1094.45" y="89.75" width="32.1" height="96.3" rx="3.27" ry="3.27"/><path class="cls-1" d="M575.09,59.4l-19.56,79.86-20.84-79.9c-.38-1.45-1.68-2.46-3.18-2.46h-23.19c-1.48,0-2.78.99-3.17,2.43l-21.54,79.38-19.74-79.31c-.36-1.47-1.68-2.49-3.19-2.49h-29.45c-2.22,0-3.8,2.16-3.14,4.27l38.3,121.82c.43,1.37,1.7,2.3,3.14,2.3h24.27c1.47,0,2.76-.97,3.16-2.39l22.05-77.41,22.06,77.41c.4,1.41,1.69,2.39,3.16,2.39h24.44c1.44,0,2.71-.93,3.14-2.31l38.11-121.82c.66-2.12-.92-4.27-3.14-4.27h-28.51c-1.51,0-2.83,1.03-3.19,2.51Z"/><path class="cls-1" d="M696.22,140.59c0,26.53-21.52,47.99-47.99,47.99-7.38,0-14.31-1.65-20.53-4.62.5-.22,1.05-.5,1.6-.83,10.51-6.05,22.62-15.69,34.18-27.24,9.36-9.36,21.24-23.17,28.18-35.77,2.92,6.22,4.57,13.15,4.57,20.47Z"/><path class="cls-1" d="M694.07,94.69c-4.9-4.84-13.37-4.07-25.37,2.48-.5.28-1.05.55-1.6.88-10.51,6.05-22.62,15.74-34.18,27.24-11.56,11.56-21.24,23.72-27.24,34.23-.33.55-.61,1.05-.88,1.54-6.55,12-7.37,20.53-2.48,25.43,2.09,2.09,4.84,3.14,8.26,3.14,4.57,0,10.29-1.87,17.12-5.67.5-.22,1.05-.5,1.6-.83,10.51-6.05,22.62-15.69,34.18-27.24,9.36-9.36,21.24-23.17,28.18-35.77,5.61-10.4,7.87-19.98,2.42-25.43ZM655.71,148.08c-16.18,16.18-30.38,25.48-38.75,28.95-3.19,1.38-5.5,1.87-6.77,1.6-.28-1.21.22-3.58,1.6-6.77,3.52-8.31,12.77-22.62,28.89-38.75,16.18-16.18,30.38-25.48,38.75-28.95,3.19-1.38,5.5-1.87,6.77-1.6.05.22.05.44.05.77,0,1.32-.55,3.36-1.65,6-3.52,8.31-12.77,22.62-28.89,38.75Z"/><path class="cls-1" d="M600.9,157.88c-.51-.02-1.05-.19-1.27-.64-3.15-6.61-4.76-13.71-4.76-21.12,0-27.22,22.17-49.37,49.43-49.37,7.41,0,14.52,1.6,21.12,4.76.48.23.78.7.78,1.23,0,.53-.29,1.01-.76,1.24-11,6.26-23.44,16.17-35.31,28.03-11.75,11.74-21.66,24.19-27.91,35.05-.25.43-.79.83-1.3.83h-.03Z"/><path class="cls-1" d="M491.42,246.44h-8.12s-4.18-7.65-4.18-7.65c-.24-.45-.47-.86-.69-1.24-.23-.38-.47-.71-.73-.99-.26-.28-.57-.49-.91-.65-.34-.16-.77-.24-1.3-.24h-1.97s0,10.76,0,10.76h-7.17v-27.59h7.17v10.37s1.77,0,1.77,0c.97,0,1.73-.26,2.26-.79.54-.52,1.07-1.24,1.6-2.13l4.46-7.45h7.61s-6.34,10.76-6.34,10.76c-.32.53-.67,1.02-1.05,1.48-.38.46-.83.81-1.36,1.05.69.34,1.27.85,1.77,1.54.5.68.95,1.39,1.34,2.13l5.83,10.64Z"/><polygon class="cls-1" points="541.47 240.8 541.47 246.44 521.93 246.44 521.93 218.85 541.24 218.85 541.24 224.48 529.1 224.48 529.1 229.65 540.29 229.65 540.29 235.29 529.1 235.29 529.1 240.8 541.47 240.8"/><path class="cls-1" d="M588.3,236.82v9.62h-7.17v-9.46s-10.13-18.13-10.13-18.13h8.67s2.95,6.39,2.95,6.39c.37.82.76,1.68,1.17,2.6.41.92.75,1.76,1.04,2.52.29-.76.64-1.61,1.07-2.54.42-.93.81-1.81,1.18-2.62l2.92-6.35h8.47s-10.17,17.97-10.17,17.97Z"/><polygon class="cls-1" points="684.62 225.04 675.96 225.04 675.96 246.44 668.78 246.44 668.78 225.04 660.15 225.04 660.15 218.85 684.62 218.85 684.62 225.04"/><path class="cls-1" d="M727.39,218.06c2.18,0,4.13.33,5.87.99,1.74.66,3.21,1.61,4.42,2.86,1.2,1.25,2.13,2.77,2.76,4.57.63,1.8.95,3.83.95,6.09,0,2.28-.32,4.33-.95,6.15-.63,1.81-1.55,3.35-2.76,4.61-1.21,1.26-2.68,2.23-4.42,2.9-1.73.67-3.69,1.01-5.87,1.01-2.19,0-4.14-.33-5.87-.99-1.74-.66-3.2-1.61-4.4-2.86-1.2-1.25-2.11-2.76-2.76-4.55-.65-1.79-.97-3.82-.97-6.11,0-2.28.32-4.33.97-6.15.64-1.81,1.56-3.35,2.76-4.61,1.19-1.26,2.66-2.23,4.4-2.9,1.73-.67,3.69-1.01,5.87-1.01ZM727.39,224.17c-2.1,0-3.75.74-4.95,2.21-1.2,1.47-1.79,3.56-1.79,6.27,0,2.73.6,4.83,1.79,6.29,1.2,1.46,2.85,2.19,4.95,2.19,2.07,0,3.72-.73,4.93-2.19,1.21-1.46,1.81-3.55,1.81-6.29,0-2.71-.6-4.79-1.81-6.27-1.21-1.47-2.85-2.21-4.93-2.21Z"/><path class="cls-1" d="M820.17,218.85c4.62,0,8.12,1.19,10.48,3.57,2.36,2.38,3.55,5.79,3.55,10.23,0,4.44-1.19,7.85-3.55,10.23-2.36,2.38-5.86,3.57-10.48,3.57h-11.07v-27.59h11.07ZM819.81,240.41c4.75,0,7.13-2.59,7.13-7.76,0-5.18-2.38-7.76-7.13-7.76h-3.55s0,15.53,0,15.53h3.55Z"/><rect class="cls-1" x="866.05" y="218.85" width="7.17" height="27.59"/><path class="cls-1" d="M929.66,230.83v14.7c-1.42.5-3,.91-4.75,1.22-1.74.32-3.6.47-5.57.47-2.29,0-4.32-.33-6.09-.99-1.78-.66-3.27-1.6-4.48-2.84-1.2-1.24-2.13-2.75-2.76-4.53-.63-1.79-.95-3.81-.95-6.07,0-2.21.31-4.22.93-6.03.62-1.81,1.56-3.36,2.83-4.65,1.28-1.29,2.88-2.29,4.83-2.99,1.94-.71,4.23-1.07,6.86-1.07,1.5,0,2.85.11,4.06.32,1.21.21,2.48.54,3.82.99v6.23c-1.26-.5-2.5-.87-3.7-1.12-1.21-.25-2.56-.38-4.06-.38-2.87,0-4.97.77-6.31,2.3-1.34,1.53-2.01,3.61-2.01,6.23s.62,4.71,1.85,6.25c1.23,1.55,3.19,2.32,5.87,2.32.95,0,1.97-.1,3.07-.32v-4.49s-4.65,0-4.65,0v-5.56h11.2Z"/><rect class="cls-1" x="961.94" y="218.85" width="7.17" height="27.59"/><polygon class="cls-1" points="1024.45 225.04 1015.78 225.04 1015.78 246.44 1008.61 246.44 1008.61 225.04 999.97 225.04 999.97 218.85 1024.45 218.85 1024.45 225.04"/><path class="cls-1" d="M1068.16,241.75h-9.34s-1.54,4.69-1.54,4.69h-7.57s10.6-27.59,10.6-27.59h6.55s10.6,27.59,10.6,27.59h-7.73s-1.58-4.69-1.58-4.69ZM1066.46,236.54l-3-8.91-2.91,8.91h5.91Z"/><polygon class="cls-1" points="1127.08 240.25 1127.08 246.44 1107.97 246.44 1107.97 218.85 1115.14 218.85 1115.14 240.25 1127.08 240.25"/><path class="cls-1" d="M345.85,0H26.4C11.82,0,0,11.8,0,26.38v194.47c0,14.56,11.82,26.38,26.4,26.38h319.45c14.58,0,26.4-11.82,26.4-26.38V26.38c0-14.58-11.82-26.38-26.4-26.38ZM188.83,127.85l-42.35,75.23c-7.3,13.09-26.77,10.92-31.04-3.44l-30.86-104.17h-30.96c-9.24-.27-16.67-7.89-16.67-17.24s7.42-16.93,16.67-17.2h43.19c8.1,0,15.23,5.36,17.57,13.11l22.39,75.64,21.72-38.93c4.83-8.67,16.5-11.33,24.35-6.32,7.87,5.03,10.55,15.19,5.99,23.31ZM333.18,61.55l-65.54,116.11c-7.32,13.09-26.79,10.92-31.04-3.43l-30.86-104.17h-30.98c-9.22-.27-16.65-7.89-16.65-17.24s7.42-16.93,16.65-17.2h43.21c8.1,0,15.23,5.36,17.57,13.11l22.39,75.64,44.52-79.83c3.07-5.52,11.82-12.66,23.68-6.99,7.44,3.56,12.13,15.01,7.05,24.01Z"/></g></svg>